<svg display="none" version="1.1" xmlns="http://www.w3.org/2000/svg" xmlns:xlink="http://www.w3.org/1999/xlink">


<!-- Burgers -->
  <symbol id="burger01" viewBox="0 0 50 50">
    <path class="burger01_1" d="M13.6,24.9h30.2V13.5c0-4.1-3.3-7.4-7.4-7.4H13.7c-4.1,0-7.4,3.3-7.4,7.4L6.2,36.3c0,4.1,3.3,7.5,7.4,7.5h22.7
  c4.1,0,7.4-3.3,7.4-7.4V24.9"/>
    <polyline class="burger01_2" points="37,36.5 13.6,36.5 37,13.5 "/>
    <polyline class="burger01_2" points="37,13.5 13.6,13.5 37,36.5 "/>
  </symbol>

  <symbol id="burger02" viewBox="0 0 50 50">
    <polyline class="burger02_1" points="39.8,12.2 10.2,12.2 10.2,25 24.7,12.6 "/>
    <line class="burger02_2" x1="10.2" y1="25" x2="39.8" y2="25"/>
    <polyline class="burger02_1" points="39.8,37.8 10.2,37.8 10.2,25 24.7,37.4 "/>
  </symbol>


<!-- Search -->
  <symbol id="search01" viewBox="0 0 50 50">
    <line class="search01_1" x1="9.1" y1="40.9" x2="40.9" y2="9.1"/>
    <path class="serach01_2" d="M29.2,9.1c-6.4,0-11.7,5.2-11.7,11.7s5.2,11.7,11.7,11.7s11.7-5.2,11.7-11.7S35.7,9.1,29.2,9.1H9.1l31.8,31.8"
  />
  </symbol>

</svg>